<svg width="16" height="16" viewBox="0 0 16 16" fill="none" xmlns="http://www.w3.org/2000/svg">
<g clip-path="url(#clip0_629_4140)">
<path d="M14.8925 9.14881C14.8925 7.78921 14.1189 6.54961 12.8965 5.95441C10.9633 5.01321 8.16206 3.65241 7.02086 3.11321C6.35406 2.79841 5.56366 2.94521 5.05206 3.47601L2.03686 6.60521C1.72806 6.92561 1.55566 7.35281 1.55566 7.79761V10.3708C1.55566 11.7944 2.70966 12.9488 4.13366 12.9488L11.3445 12.9364C13.3049 12.9332 14.8925 11.3428 14.8925 9.38241V9.14881Z" fill="#FFC84D"/>
<path d="M7.80926 8.52805V7.08765L5.23926 9.65765L7.80926 8.52805Z" fill="#F78700"/>
<path d="M12.6244 1.76005L11.9624 1.09765C11.8112 0.946453 11.566 0.946453 11.4148 1.09765L0.742766 11.7697C0.693966 11.8185 0.659166 11.8789 0.641166 11.9457L0.313566 13.1685C0.274366 13.3145 0.407966 13.4477 0.553566 13.4085L1.77637 13.0809C1.84277 13.0629 1.90357 13.0281 1.95237 12.9793L2.52117 12.4105C2.42157 12.2809 2.34237 12.1329 2.29517 11.9681C2.11197 11.3265 2.43437 10.6485 3.04797 10.3853L5.50517 9.42685L12.6244 2.30765C12.7756 2.15645 12.7756 1.91125 12.6244 1.76005Z" fill="#4B596A"/>
<path d="M2.29553 11.968C2.34273 12.1328 2.42153 12.2808 2.52153 12.4104C2.78553 12.7536 3.20713 12.9576 3.66033 12.9272L9.25633 12.894L8.62193 8.21082L5.50513 9.42682L3.04793 10.3852C2.43433 10.6484 2.11273 11.326 2.29553 11.968Z" fill="#FFC84D"/>
</g>
<defs>
<clipPath id="clip0_629_4140">
<rect width="16" height="16" fill="white"/>
</clipPath>
</defs>
</svg>
