<svg width="48" height="48" viewBox="0 0 48 48" fill="none" xmlns="http://www.w3.org/2000/svg">
<g clip-path="url(#clip0_532_4569)">
<path fill-rule="evenodd" clip-rule="evenodd" d="M25.6536 4.6287C26.5732 6.28396 25.9768 8.37128 24.3215 9.29086C18.6636 12.4341 14.0097 17.5613 10.8253 23.3514C9.75075 25.3053 8.577 28.5637 8.46012 31.3368C8.40241 32.7062 8.61601 33.6541 8.93425 34.2377C9.18412 34.6958 9.58894 35.1221 10.5633 35.369C11.5564 35.6207 13.456 35.6451 15.9958 35.1887C17.5475 34.9099 19.2047 34.4756 20.8402 33.9048C19.2329 31.1503 18.1457 27.6275 19.0858 23.9443C19.7477 21.3512 21.1581 19.3314 23.0821 18.0286C24.9689 16.7511 27.1465 16.299 29.1692 16.444C33.0054 16.7189 37.3446 19.3708 37.9174 24.2335C38.3514 27.9185 36.771 31.049 34.5898 33.4257C33.8653 34.2151 33.0528 34.9485 32.1797 35.6266C35.5537 37.4121 38.7649 37.5959 42.9417 36.5056C44.7739 36.0274 46.6469 37.125 47.1251 38.9571C47.6033 40.7893 46.5058 42.6622 44.6736 43.1405C38.7128 44.6964 33.373 44.3663 27.8413 41.0489C27.0875 40.5969 26.3189 40.0505 25.5639 39.4249C22.8149 40.5994 19.9048 41.4532 17.2086 41.9377C14.2909 42.462 11.2624 42.6201 8.87884 42.0161C6.12193 41.3174 4.11096 39.7154 2.91412 37.5207C1.78565 35.4514 1.52164 33.1221 1.60906 31.048C1.78245 26.9343 3.38996 22.6416 4.8169 20.0469C8.50001 13.3499 14.0012 7.18007 20.9914 3.29663C22.6467 2.37705 24.734 2.97343 25.6536 4.6287ZM27.0339 30.8905C28.0267 30.2202 28.8735 29.5129 29.5377 28.7892C30.844 27.3659 31.2366 26.1337 31.1073 25.0356C31.0285 24.3664 30.2599 23.3969 28.679 23.2836C27.9931 23.2344 27.3849 23.3964 26.9267 23.7066C26.5059 23.9915 26.0125 24.533 25.73 25.6401C25.3653 27.0688 25.7476 28.8404 26.9534 30.7639C26.98 30.8063 27.0068 30.8485 27.0339 30.8905Z" fill="white"/>
</g>
<defs>
<clipPath id="clip0_532_4569">
<rect width="48" height="48" fill="white"/>
</clipPath>
</defs>
</svg>
