<svg width="24" height="24" viewBox="0 0 24 24" fill="none" xmlns="http://www.w3.org/2000/svg">
<circle cx="12" cy="12" r="10" fill="#FE9B0E"/>
<path fill-rule="evenodd" clip-rule="evenodd" d="M11.7998 7C12.2416 7 12.5998 7.35817 12.5998 7.8V12.8686C12.5998 13.3104 12.2416 13.6686 11.7998 13.6686C11.3579 13.6686 10.9998 13.3104 10.9998 12.8686V7.8C10.9998 7.35817 11.3579 7 11.7998 7ZM11.7998 14.8255C12.2416 14.8255 12.5998 15.1836 12.5998 15.6255V15.67C12.5998 16.1118 12.2416 16.47 11.7998 16.47C11.3579 16.47 10.9998 16.1118 10.9998 15.67V15.6255C10.9998 15.1836 11.3579 14.8255 11.7998 14.8255Z" fill="#152032"/>
</svg>
