<svg width="56" height="44" viewBox="0 0 56 44" fill="none" xmlns="http://www.w3.org/2000/svg">
<path d="M0.25 10.75V36.25C0.25 38.0245 0.892 39.6325 1.9225 40.918L19.57 26.851L0.25 10.75Z" fill="#D0D5DA"/>
<path d="M54.0772 40.918C55.1077 39.634 55.7497 38.0245 55.7497 36.25V10.75L36.4297 26.8495L54.0772 40.918Z" fill="#D0D5DA"/>
<path d="M39.3825 22.606L30.918 30.841C31.68 30.547 32.421 30.1525 33.1065 29.62L36.4305 26.8495L55.7505 10.75L39.7725 21.7585C39.654 22.0405 39.5325 22.3225 39.3825 22.606Z" fill="#AFB7C0"/>
<path d="M22.7185 29.473C20.44 27.5965 17.9905 25.189 16.618 22.6045C16.468 22.3225 16.3465 22.039 16.228 21.757L0.25 10.75L19.57 26.8495L22.7185 29.473Z" fill="#AFB7C0"/>
<path d="M33.1059 29.62C32.4204 30.151 31.6794 30.5455 30.9174 30.841L29.2719 32.4415C28.4979 32.953 27.5004 32.953 26.7264 32.4415C25.7334 31.786 24.2634 30.748 22.7169 29.473L19.5684 26.8495L1.9209 40.9165C3.2949 42.6295 5.3814 43.7485 7.7484 43.7485H48.2484C50.6154 43.7485 52.7019 42.6295 54.0759 40.9165L36.4284 26.8495L33.1059 29.62Z" fill="#E5E9EE"/>
<path d="M48.25 0.25H7.75C3.6085 0.25 0.25 3.6085 0.25 7.75V10.75L16.228 21.7585C13.9465 16.333 17.3815 11.1745 21.8635 11.1745C24.5515 11.1745 26.17 12.5785 27.064 13.786C27.535 14.422 28.4665 14.422 28.9375 13.786C29.8315 12.5785 31.45 11.1745 34.138 11.1745C38.62 11.1745 42.0535 16.333 39.7735 21.7585L55.7515 10.75V7.75C55.7515 3.6085 52.3915 0.25 48.25 0.25Z" fill="#E5E9EE"/>
<path d="M16.6178 22.606C17.9903 25.189 20.4398 27.5965 22.7183 29.4745C24.2648 30.7495 25.7348 31.786 26.7278 32.443C27.5018 32.9545 28.4993 32.9545 29.2733 32.443L30.9188 30.8425L39.3833 22.6075C39.5333 22.3255 39.6548 22.042 39.7733 21.76C42.0548 16.3345 38.6198 11.176 34.1378 11.176C31.4498 11.176 29.8313 12.58 28.9373 13.7875C28.4663 14.4235 27.5348 14.4235 27.0638 13.7875C26.1698 12.58 24.5513 11.176 21.8633 11.176C17.3813 11.176 13.9478 16.3345 16.2278 21.76C16.3463 22.042 16.4678 22.324 16.6178 22.6075V22.606Z" fill="#EC4452"/>
</svg>
