<svg width="40" height="40" viewBox="0 0 40 40" fill="none" xmlns="http://www.w3.org/2000/svg">
<rect width="40" height="40" rx="20" fill="#E2E8F0"/>
<g clip-path="url(#clip0_1091_79042)">
<path fill-rule="evenodd" clip-rule="evenodd" d="M20.759 11.121C21.1805 11.8797 20.9072 12.8364 20.1485 13.2579C17.5553 14.6985 15.4222 17.0485 13.9628 19.7022C13.4702 20.5978 12.9323 22.0913 12.8787 23.3622C12.8522 23.9899 12.9501 24.4243 13.096 24.6918C13.2105 24.9018 13.3961 25.0972 13.8426 25.2103C14.2978 25.3257 15.1685 25.3369 16.3326 25.1277C17.0437 24.9999 17.8033 24.8008 18.5529 24.5393C17.8162 23.2768 17.3179 21.6622 17.7488 19.974C18.0521 18.7855 18.6986 17.8598 19.5805 17.2627C20.4452 16.6771 21.4433 16.4699 22.3704 16.5364C24.1286 16.6624 26.1174 17.8778 26.3799 20.1066C26.5789 21.7955 25.8545 23.2303 24.8548 24.3197C24.5227 24.6815 24.1503 25.0176 23.7502 25.3284C25.2966 26.1468 26.7684 26.231 28.6828 25.7313C29.5225 25.5121 30.3809 26.0152 30.6001 26.8549C30.8193 27.6946 30.3163 28.5531 29.4765 28.7723C26.7445 29.4854 24.2971 29.3341 21.7617 27.8136C21.4162 27.6064 21.0639 27.356 20.7179 27.0693C19.458 27.6076 18.1242 27.9989 16.8884 28.221C15.5511 28.4613 14.1631 28.5338 13.0706 28.2569C11.807 27.9367 10.8853 27.2024 10.3368 26.1965C9.81956 25.2481 9.69856 24.1805 9.73863 23.2299C9.81809 21.3444 10.5549 19.3769 11.2089 18.1877C12.897 15.1183 15.4183 12.2904 18.6222 10.5105C19.3809 10.089 20.3376 10.3624 20.759 11.121ZM21.3917 23.1577C21.8467 22.8505 22.2348 22.5263 22.5393 22.1946C23.138 21.5422 23.3179 20.9775 23.2587 20.4742C23.2225 20.1675 22.8703 19.7231 22.1457 19.6712C21.8313 19.6487 21.5525 19.7229 21.3426 19.8651C21.1497 19.9957 20.9235 20.2438 20.794 20.7513C20.6269 21.4061 20.8021 22.218 21.3548 23.0997C21.367 23.1191 21.3793 23.1384 21.3917 23.1577Z" fill="#64748B"/>
</g>
<defs>
<clipPath id="clip0_1091_79042">
<rect width="22" height="22" fill="white" transform="translate(9 9)"/>
</clipPath>
</defs>
</svg>
