<svg width="current" height="current" viewBox="0 0 24 24" fill="none" xmlns="http://www.w3.org/2000/svg">
<path d="M3 9.84719C3 8.99027 3.36644 8.17426 4.00691 7.60496L9.34255 2.86217C10.8581 1.51502 13.1419 1.51502 14.6575 2.86217L19.9931 7.60496C20.6336 8.17426 21 8.99027 21 9.84719V18C21 20.2091 19.2091 22 17 22H7C4.79086 22 3 20.2091 3 18V9.84719Z" fill="#0B7285"/>
<path fill-rule="evenodd" clip-rule="evenodd" d="M9.25 18C9.25 17.5858 9.58579 17.25 10 17.25H14C14.4142 17.25 14.75 17.5858 14.75 18C14.75 18.4142 14.4142 18.75 14 18.75H10C9.58579 18.75 9.25 18.4142 9.25 18Z" fill="white"/>
</svg>
