<svg width="98" height="88" viewBox="0 0 98 88" fill="none" xmlns="http://www.w3.org/2000/svg">
<g filter="url(#filter0_d_1091_73636)">
<path d="M14.1836 20.8686L8.45238 47.8318C8.05355 49.7082 8.37097 51.5527 9.17166 53.1436L30.993 42.2357L14.1836 20.8686Z" fill="#D0D5DA"/>
<path d="M64.3208 64.8672C65.699 63.7411 66.7396 62.1836 67.1384 60.3073L72.8696 33.344L48.823 46.0252L64.3208 64.8672Z" fill="#D0D5DA"/>
<path d="M52.885 42.1985L42.0841 49.0037C42.9559 48.8641 43.828 48.6135 44.6725 48.2045L48.8099 46.0221L72.8565 33.3409L53.4878 41.3901C53.2991 41.6616 53.1073 41.9325 52.885 42.1985Z" fill="#AFB7C0"/>
<path d="M33.7328 45.7157C31.7454 43.2195 29.6965 40.1233 28.8261 37.082C28.7309 36.7501 28.6661 36.423 28.6042 36.0982L14.1836 20.8686L30.9934 42.2341L33.7328 45.7157Z" fill="#AFB7C0"/>
<path d="M44.6851 48.2073C43.8409 48.6147 42.9687 48.8653 42.0966 49.0065L39.997 50.329C39.0636 50.6959 38.0089 50.4717 37.3055 49.7569C36.4029 48.8406 35.0818 47.4127 33.7332 45.7169L30.9937 42.2353L9.17238 53.1432C10.2402 55.2633 12.1949 56.9155 14.6976 57.4474L57.5207 66.5498C60.0235 67.0817 62.4811 66.3675 64.319 64.865L48.8208 46.0245L44.6851 48.2073Z" fill="#E5E9EE"/>
<path d="M67.2982 20.5524L24.4751 11.4501C20.0961 10.5193 15.7901 13.3157 14.8593 17.6948L14.185 20.8669L28.6053 36.0982C27.4123 29.8486 32.2038 25.1661 36.9428 26.1734C39.785 26.7775 41.1808 28.6259 41.8547 30.1036C42.2098 30.8819 43.1947 31.0913 43.8357 30.5246C45.0523 29.4488 47.0792 28.328 49.9214 28.9321C54.6605 29.9394 57.1316 36.1656 53.5014 41.39L72.8701 33.3408L73.5443 30.1687C74.4751 25.7895 71.6772 21.4832 67.2982 20.5524Z" fill="#E5E9EE"/>
<path d="M28.8228 37.0835C29.6935 40.1232 31.7424 43.2194 33.7295 45.7172C35.0781 47.413 36.3995 48.8393 37.3018 49.7572C38.0052 50.472 39.06 50.6962 39.9933 50.3293L42.0929 49.0068L52.8938 42.2016C53.1158 41.9372 53.308 41.6647 53.4966 41.3931C57.1284 36.1691 54.6558 29.9426 49.9167 28.9352C47.0745 28.3311 45.0476 29.4519 43.8309 30.5278C43.19 31.0944 42.205 30.8851 41.85 30.1067C41.1761 28.629 39.7803 26.7807 36.9381 26.1766C32.199 25.1692 27.4092 29.8521 28.6006 36.1013C28.6625 36.4261 28.7276 36.7516 28.8225 37.0851L28.8228 37.0835Z" fill="#EC4452"/>
</g>
<defs>
<filter id="filter0_d_1091_73636" x="0.467123" y="0.852465" width="96.6979" height="86.71" filterUnits="userSpaceOnUse" color-interpolation-filters="sRGB">
<feFlood flood-opacity="0" result="BackgroundImageFix"/>
<feColorMatrix in="SourceAlpha" type="matrix" values="0 0 0 0 0 0 0 0 0 0 0 0 0 0 0 0 0 0 127 0" result="hardAlpha"/>
<feOffset dx="7.81413" dy="5.20942"/>
<feGaussianBlur stdDeviation="7.81413"/>
<feComposite in2="hardAlpha" operator="out"/>
<feColorMatrix type="matrix" values="0 0 0 0 0.0352941 0 0 0 0 0.0980392 0 0 0 0 0.223529 0 0 0 0.3 0"/>
<feBlend mode="normal" in2="BackgroundImageFix" result="effect1_dropShadow_1091_73636"/>
<feBlend mode="normal" in="SourceGraphic" in2="effect1_dropShadow_1091_73636" result="shape"/>
</filter>
</defs>
</svg>
